<svg xmlns="http://www.w3.org/2000/svg" viewBox="0 0 64 64" width="64" height="64">
  <defs>
    <radialGradient id="ballGrad" cx="38%" cy="35%" r="60%">
      <stop offset="0%" stop-color="#ffffff"/>
      <stop offset="40%" stop-color="#e8e8e8"/>
      <stop offset="100%" stop-color="#a0a0a0"/>
    </radialGradient>
    <radialGradient id="highlightGrad" cx="35%" cy="30%" r="40%">
      <stop offset="0%" stop-color="rgba(255,255,255,0.9)"/>
      <stop offset="100%" stop-color="rgba(255,255,255,0)"/>
    </radialGradient>
    <clipPath id="ballClip">
      <circle cx="32" cy="32" r="29"/>
    </clipPath>
    <filter id="shadow" x="-20%" y="-20%" width="140%" height="140%">
      <feDropShadow dx="2" dy="3" stdDeviation="3" flood-color="rgba(0,0,0,0.4)"/>
    </filter>
  </defs>

  <circle cx="32" cy="32" r="29" fill="url(#ballGrad)" filter="url(#shadow)"/>

  <g clip-path="url(#ballClip)" fill="#1a1a1a">
    <polygon points="32,3 40,12 32,21 24,12" />
    <polygon points="55,18 57,30 46,33 39,24 44,14" />
    <polygon points="57,42 51,52 40,50 39,38 50,35" />
    <polygon points="40,58 28,60 24,50 33,43 44,48" />
    <polygon points="20,58 10,52 12,40 24,38 28,48" />
    <polygon points="7,42 5,30 14,24 24,30 22,42" />
    <polygon points="9,18 18,12 26,18 24,28 13,30" />
  </g>

  <circle cx="32" cy="32" r="29" fill="url(#highlightGrad)"/>

  <circle cx="32" cy="32" r="29" fill="none" stroke="rgba(255,255,255,0.2)" stroke-width="0.5"/>
</svg>
